<?xml version="1.0" encoding="UTF-8" standalone="no"?>
<!-- Generator: Adobe Illustrator 22.1.0, SVG Export Plug-In . SVG Version: 6.00 Build 0)  -->

<svg
   xmlns:dc="http://purl.org/dc/elements/1.1/"
   xmlns:cc="http://creativecommons.org/ns#"
   xmlns:rdf="http://www.w3.org/1999/02/22-rdf-syntax-ns#"
   xmlns:svg="http://www.w3.org/2000/svg"
   xmlns="http://www.w3.org/2000/svg"
   xmlns:sodipodi="http://sodipodi.sourceforge.net/DTD/sodipodi-0.dtd"
   xmlns:inkscape="http://www.inkscape.org/namespaces/inkscape"
   version="1.1"
   id="Layer_1"
   x="0px"
   y="0px"
   viewBox="0 0 326.70414 45"
   xml:space="preserve"
   sodipodi:docname="logo-full.svg"
   width="326.70416"
   height="45"
   inkscape:version="0.92.3 (2405546, 2018-03-11)"><metadata
   id="metadata65"><rdf:RDF><cc:Work
       rdf:about=""><dc:format>image/svg+xml</dc:format><dc:type
         rdf:resource="http://purl.org/dc/dcmitype/StillImage" /><dc:title /></cc:Work></rdf:RDF></metadata><defs
   id="defs63">
	
	
</defs><sodipodi:namedview
   pagecolor="#6b1cff"
   bordercolor="#666666"
   borderopacity="1"
   objecttolerance="10"
   gridtolerance="10"
   guidetolerance="10"
   inkscape:pageopacity="0"
   inkscape:pageshadow="2"
   inkscape:window-width="1718"
   inkscape:window-height="1368"
   id="namedview61"
   showgrid="false"
   units="px"
   inkscape:zoom="0.94458288"
   inkscape:cx="-13.212448"
   inkscape:cy="-119.08614"
   inkscape:window-x="1713"
   inkscape:window-y="0"
   inkscape:window-maximized="0"
   inkscape:current-layer="Layer_1"
   fit-margin-left="30"
   fit-margin-right="30"
   fit-margin-top="0"
   fit-margin-bottom="0" />
<style
   type="text/css"
   id="style2">
	.st0{fill:#FFFFFF;}
</style>












<polygon
   points="182.1,184.1 157.2,140.2 132.4,184.1 "
   id="polygon4"
   style="fill:#f2f2f2;fill-opacity:1"
   transform="matrix(0.33112583,0,0,0.33112583,3.21192,-45.728477)" /><polygon
   points="182.1,184.1 157.3,228 132.4,184.1 "
   id="polygon6"
   style="fill:#f2f2f2"
   transform="matrix(0.33112583,0,0,0.33112583,3.21192,-45.728477)" /><polygon
   points="107.5,228 132.4,184.1 157.3,228 "
   id="polygon8"
   style="fill:#f2f2f2"
   transform="matrix(0.33112583,0,0,0.33112583,3.21192,-45.728477)" /><polygon
   points="182.1,184.1 207,140.2 231.9,184.1 "
   id="polygon10"
   style="fill:#f2f2f2"
   transform="matrix(0.33112583,0,0,0.33112583,3.21192,-45.728477)" /><polygon
   points="256.8,228 231.9,184.1 207,228 "
   id="polygon12"
   style="fill:#f2f2f2"
   transform="matrix(0.33112583,0,0,0.33112583,3.21192,-45.728477)" /><polygon
   points="182.1,184.1 207,228 231.9,184.1 "
   id="polygon14"
   style="fill:#f2f2f2"
   transform="matrix(0.33112583,0,0,0.33112583,3.21192,-45.728477)" /><polygon
   points="207,228 182.1,272 157.3,228 "
   id="polygon16"
   style="fill:#f2f2f2"
   transform="matrix(0.33112583,0,0,0.33112583,3.21192,-45.728477)" /><polygon
   points="256.8,228 231.9,272 207,228 "
   id="polygon18"
   style="fill:#f2f2f2"
   transform="matrix(0.33112583,0,0,0.33112583,3.21192,-45.728477)" /><polygon
   points="132.4,272 107.5,228 82.6,272 "
   id="polygon20"
   style="fill:#f2f2f2"
   transform="matrix(0.33112583,0,0,0.33112583,3.21192,-45.728477)" /><polygon
   points="107.5,228 132.4,272 157.3,228 "
   id="polygon22"
   style="fill:#f2f2f2"
   transform="matrix(0.33112583,0,0,0.33112583,3.21192,-45.728477)" /><polygon
   points="132.4,272 107.5,228 82.6,272 "
   id="polygon20-8"
   style="fill:#f2f2f2"
   transform="matrix(0.33112583,0,0,0.33112583,52.649,-45.728477)" /><path
   style="fill:#f2f2f2;stroke-width:0.33112583"
   inkscape:connector-curvature="0"
   id="path26"
   d="M 71.75496,0 63.50993,14.536424 55.2649,0 30,44.668874 H 47.21854 L 55.2649,30.463576 63.50993,45 71.75496,30.463576 79.80132,44.668874 H 97.01987 Z M 80,15.89404 87.649,29.437086 H 72.31788 Z M 71.75496,1.357616 79.43708,14.900662 H 64.10596 v 0 z m -16.49006,0 7.68212,13.543046 H 47.61589 Z m -24.10596,42.649007 7.68212,-13.543047 3.84106,6.78808 3.84106,6.788079 H 31.15894 Z m 15.89404,-0.331126 -3.84106,-6.78808 -3.84106,-6.788079 h 15.33112 z m -7.68212,-14.238411 7.68212,-13.543046 0.46357,0.827814 7.18543,12.715232 z m 9.07285,-12.450331 -0.82782,-1.423841 h 15.33113 v 0 L 55.29801,29.10596 Z m 15.06622,26.688742 -7.649,-13.576159 H 71.19205 Z M 71.19205,29.437086 H 55.86093 v 0 L 63.54304,15.89404 Z M 71.75496,29.10596 64.07285,15.562914 h 15.33112 l -0.82781,1.423841 z M 80,43.675497 72.31788,30.099338 H 87.649 l -3.84105,6.788079 z m 4.40397,-6.456954 3.84106,-6.788079 7.68212,13.543046 H 80.59602 Z"
   class="st0" /><g
   id="g56"
   style="fill:#f2f2f2"
   transform="matrix(0.45359702,0,0,0.45359702,-54.47065,-70.963671)">
	<path
   inkscape:connector-curvature="0"
   d="m 398.7,186.1 v 45.4 h -5.4 v -33.4 c 0,-0.4 0,-0.9 0,-1.4 0,-0.5 0.1,-1 0.1,-1.6 l -15.6,28.4 c -0.5,1 -1.2,1.4 -2.2,1.4 h -0.9 c -1,0 -1.7,-0.5 -2.2,-1.4 L 356.6,195 c 0.1,1.1 0.2,2.2 0.2,3.1 v 33.4 h -5.4 v -45.4 h 4.5 c 0.5,0 1,0.1 1.3,0.2 0.3,0.1 0.6,0.4 0.9,0.9 l 15.7,28 c 0.3,0.5 0.5,1 0.7,1.6 0.2,0.5 0.5,1.1 0.7,1.7 0.2,-0.6 0.4,-1.1 0.7,-1.7 0.2,-0.6 0.5,-1.1 0.8,-1.6 l 15.4,-27.9 c 0.3,-0.5 0.5,-0.8 0.8,-0.9 0.3,-0.1 0.7,-0.2 1.3,-0.2 h 4.5 z"
   id="path30"
   style="fill:#f2f2f2" />
	<path
   inkscape:connector-curvature="0"
   d="m 407.2,203.9 c 1.8,-1.7 3.7,-3 5.7,-3.8 2,-0.8 4.3,-1.3 6.8,-1.3 1.8,0 3.4,0.3 4.8,0.9 1.4,0.6 2.6,1.4 3.5,2.5 1,1.1 1.7,2.3 2.2,3.8 0.5,1.5 0.7,3.1 0.7,4.9 v 20.5 h -2.5 c -0.5,0 -1,-0.1 -1.3,-0.3 -0.3,-0.2 -0.5,-0.5 -0.7,-1.1 l -0.6,-3 c -0.8,0.8 -1.7,1.5 -2.5,2.1 -0.8,0.6 -1.6,1.1 -2.5,1.5 -0.9,0.4 -1.8,0.7 -2.8,1 -1,0.2 -2.1,0.3 -3.3,0.3 -1.2,0 -2.4,-0.2 -3.5,-0.5 -1.1,-0.4 -2.1,-0.9 -2.9,-1.6 -0.8,-0.7 -1.5,-1.6 -1.9,-2.6 -0.5,-1.1 -0.7,-2.3 -0.7,-3.8 0,-1.3 0.3,-2.5 1,-3.7 0.7,-1.2 1.8,-2.2 3.4,-3.1 1.6,-0.9 3.6,-1.7 6.1,-2.2 2.5,-0.6 5.6,-0.9 9.3,-1 v -2.5 c 0,-2.5 -0.5,-4.4 -1.6,-5.7 -1.1,-1.3 -2.7,-1.9 -4.7,-1.9 -1.4,0 -2.6,0.2 -3.5,0.5 -0.9,0.3 -1.8,0.7 -2.4,1.2 -0.7,0.4 -1.3,0.8 -1.8,1.2 -0.5,0.3 -1,0.5 -1.5,0.5 -0.4,0 -0.7,-0.1 -1,-0.3 -0.3,-0.2 -0.5,-0.4 -0.7,-0.7 z m 18.2,13.1 c -2.6,0.1 -4.8,0.3 -6.6,0.6 -1.8,0.3 -3.3,0.8 -4.5,1.3 -1.2,0.5 -2,1.2 -2.5,1.9 -0.5,0.7 -0.8,1.5 -0.8,2.4 0,0.8 0.1,1.6 0.4,2.2 0.3,0.6 0.6,1.1 1.1,1.5 0.5,0.4 1,0.7 1.7,0.9 0.6,0.2 1.3,0.3 2.1,0.3 1,0 1.9,-0.1 2.7,-0.3 0.8,-0.2 1.6,-0.5 2.3,-0.9 0.7,-0.4 1.4,-0.8 2.1,-1.4 0.7,-0.5 1.3,-1.1 1.9,-1.8 V 217 Z"
   id="path32"
   style="fill:#f2f2f2" />
	<path
   inkscape:connector-curvature="0"
   d="m 444.8,204 c 0.7,-0.8 1.4,-1.5 2.2,-2.1 0.8,-0.6 1.6,-1.2 2.5,-1.6 0.9,-0.5 1.8,-0.8 2.8,-1 1,-0.2 2,-0.4 3.2,-0.4 1.8,0 3.3,0.3 4.6,0.9 1.3,0.6 2.5,1.4 3.4,2.5 0.9,1.1 1.6,2.4 2,3.9 0.5,1.5 0.7,3.2 0.7,5 v 20.4 h -5.7 V 211 c 0,-2.4 -0.6,-4.3 -1.7,-5.7 -1.1,-1.3 -2.8,-2 -5.1,-2 -1.7,0 -3.2,0.4 -4.7,1.2 -1.4,0.8 -2.8,1.9 -4,3.3 v 23.6 h -5.7 v -32.1 h 3.4 c 0.8,0 1.3,0.4 1.5,1.2 z"
   id="path34"
   style="fill:#f2f2f2" />
	<path
   inkscape:connector-curvature="0"
   d="m 474.1,203.9 c 1.8,-1.7 3.7,-3 5.7,-3.8 2,-0.8 4.3,-1.3 6.8,-1.3 1.8,0 3.4,0.3 4.8,0.9 1.4,0.6 2.6,1.4 3.5,2.5 1,1.1 1.7,2.3 2.2,3.8 0.5,1.5 0.7,3.1 0.7,4.9 v 20.5 h -2.5 c -0.5,0 -1,-0.1 -1.3,-0.3 -0.3,-0.2 -0.5,-0.5 -0.7,-1.1 l -0.6,-3 c -0.8,0.8 -1.7,1.5 -2.5,2.1 -0.8,0.6 -1.6,1.1 -2.5,1.5 -0.9,0.4 -1.8,0.7 -2.8,1 -1,0.2 -2.1,0.3 -3.3,0.3 -1.2,0 -2.4,-0.2 -3.5,-0.5 -1.1,-0.4 -2.1,-0.9 -2.9,-1.6 -0.8,-0.7 -1.5,-1.6 -1.9,-2.6 -0.5,-1.1 -0.7,-2.3 -0.7,-3.8 0,-1.3 0.3,-2.5 1,-3.7 0.7,-1.2 1.8,-2.2 3.4,-3.1 1.6,-0.9 3.6,-1.7 6.1,-2.2 2.5,-0.6 5.6,-0.9 9.3,-1 v -2.5 c 0,-2.5 -0.5,-4.4 -1.6,-5.7 -1.1,-1.3 -2.7,-1.9 -4.7,-1.9 -1.4,0 -2.6,0.2 -3.5,0.5 -0.9,0.3 -1.8,0.7 -2.4,1.2 -0.7,0.4 -1.3,0.8 -1.8,1.2 -0.5,0.3 -1,0.5 -1.5,0.5 -0.4,0 -0.7,-0.1 -1,-0.3 -0.3,-0.2 -0.5,-0.4 -0.7,-0.7 z m 18.2,13.1 c -2.6,0.1 -4.8,0.3 -6.6,0.6 -1.8,0.3 -3.3,0.8 -4.5,1.3 -1.2,0.5 -2,1.2 -2.5,1.9 -0.5,0.7 -0.8,1.5 -0.8,2.4 0,0.8 0.1,1.6 0.4,2.2 0.3,0.6 0.6,1.1 1.1,1.5 0.5,0.4 1,0.7 1.7,0.9 0.6,0.2 1.3,0.3 2.1,0.3 1,0 1.9,-0.1 2.7,-0.3 0.8,-0.2 1.6,-0.5 2.3,-0.9 0.7,-0.4 1.4,-0.8 2.1,-1.4 0.7,-0.5 1.3,-1.1 1.9,-1.8 V 217 Z"
   id="path36"
   style="fill:#f2f2f2" />
	<path
   inkscape:connector-curvature="0"
   d="m 511.7,204 c 0.7,-0.8 1.4,-1.5 2.2,-2.1 0.8,-0.6 1.6,-1.2 2.5,-1.6 0.9,-0.5 1.8,-0.8 2.8,-1 1,-0.2 2,-0.4 3.2,-0.4 1.8,0 3.3,0.3 4.6,0.9 1.3,0.6 2.5,1.4 3.4,2.5 0.9,1.1 1.6,2.4 2,3.9 0.5,1.5 0.7,3.2 0.7,5 v 20.4 h -5.7 V 211 c 0,-2.4 -0.6,-4.3 -1.7,-5.7 -1.1,-1.3 -2.8,-2 -5.1,-2 -1.7,0 -3.2,0.4 -4.7,1.2 -1.4,0.8 -2.8,1.9 -4,3.3 v 23.6 h -5.7 v -32.1 h 3.4 c 0.8,0 1.3,0.4 1.5,1.2 z"
   id="path38"
   style="fill:#f2f2f2" />
	<path
   inkscape:connector-curvature="0"
   d="m 540.9,203.9 c 1.8,-1.7 3.7,-3 5.7,-3.8 2,-0.8 4.3,-1.3 6.8,-1.3 1.8,0 3.4,0.3 4.8,0.9 1.4,0.6 2.6,1.4 3.5,2.5 1,1.1 1.7,2.3 2.2,3.8 0.5,1.5 0.7,3.1 0.7,4.9 v 20.5 h -2.5 c -0.5,0 -1,-0.1 -1.3,-0.3 -0.3,-0.2 -0.5,-0.5 -0.7,-1.1 l -0.6,-3 c -0.8,0.8 -1.7,1.5 -2.5,2.1 -0.8,0.6 -1.6,1.1 -2.5,1.5 -0.9,0.4 -1.8,0.7 -2.8,1 -1,0.2 -2.1,0.3 -3.3,0.3 -1.2,0 -2.4,-0.2 -3.5,-0.5 -1.1,-0.4 -2.1,-0.9 -2.9,-1.6 -0.8,-0.7 -1.5,-1.6 -1.9,-2.6 -0.5,-1.1 -0.7,-2.3 -0.7,-3.8 0,-1.3 0.3,-2.5 1,-3.7 0.7,-1.2 1.8,-2.2 3.4,-3.1 1.6,-0.9 3.6,-1.7 6.1,-2.2 2.5,-0.6 5.6,-0.9 9.3,-1 v -2.5 c 0,-2.5 -0.5,-4.4 -1.6,-5.7 -1.1,-1.3 -2.7,-1.9 -4.7,-1.9 -1.4,0 -2.6,0.2 -3.5,0.5 -0.9,0.3 -1.8,0.7 -2.4,1.2 -0.7,0.4 -1.3,0.8 -1.8,1.2 -0.5,0.3 -1,0.5 -1.5,0.5 -0.4,0 -0.7,-0.1 -1,-0.3 -0.3,-0.2 -0.5,-0.4 -0.7,-0.7 z m 18.3,13.1 c -2.6,0.1 -4.8,0.3 -6.6,0.6 -1.8,0.3 -3.3,0.8 -4.5,1.3 -1.2,0.5 -2,1.2 -2.5,1.9 -0.5,0.7 -0.8,1.5 -0.8,2.4 0,0.8 0.1,1.6 0.4,2.2 0.3,0.6 0.6,1.1 1.1,1.5 0.5,0.4 1,0.7 1.7,0.9 0.6,0.2 1.3,0.3 2.1,0.3 1,0 1.9,-0.1 2.7,-0.3 0.8,-0.2 1.6,-0.5 2.3,-0.9 0.7,-0.4 1.4,-0.8 2.1,-1.4 0.7,-0.5 1.3,-1.1 1.9,-1.8 V 217 Z"
   id="path40"
   style="fill:#f2f2f2" />
	<path
   inkscape:connector-curvature="0"
   d="m 622.7,222.1 c 0.3,0 0.6,0.1 0.9,0.4 l 2.4,2.6 c -1.9,2.2 -4.1,3.8 -6.8,5 -2.7,1.2 -5.9,1.8 -9.6,1.8 -3.3,0 -6.2,-0.6 -8.9,-1.7 -2.7,-1.1 -4.9,-2.7 -6.8,-4.8 -1.9,-2 -3.3,-4.5 -4.4,-7.3 -1,-2.9 -1.6,-6 -1.6,-9.4 0,-3.4 0.5,-6.6 1.6,-9.4 1.1,-2.9 2.6,-5.3 4.5,-7.4 2,-2 4.3,-3.6 7,-4.8 2.7,-1.1 5.7,-1.7 9,-1.7 3.2,0 6.1,0.5 8.6,1.6 2.5,1 4.6,2.4 6.5,4.2 l -2,2.8 c -0.1,0.2 -0.3,0.4 -0.5,0.5 -0.2,0.1 -0.5,0.2 -0.8,0.2 -0.4,0 -0.8,-0.2 -1.4,-0.6 -0.5,-0.4 -1.3,-0.9 -2.2,-1.4 -0.9,-0.5 -2,-1 -3.3,-1.4 -1.3,-0.4 -3,-0.6 -4.9,-0.6 -2.3,0 -4.5,0.4 -6.4,1.2 -1.9,0.8 -3.6,2 -5,3.5 -1.4,1.5 -2.5,3.4 -3.3,5.6 -0.8,2.2 -1.2,4.7 -1.2,7.5 0,2.8 0.4,5.4 1.2,7.6 0.8,2.2 1.9,4.1 3.3,5.6 1.4,1.5 3.1,2.7 5,3.5 1.9,0.8 4,1.2 6.2,1.2 1.4,0 2.6,-0.1 3.7,-0.2 1.1,-0.2 2.1,-0.4 3,-0.7 0.9,-0.3 1.8,-0.8 2.6,-1.3 0.8,-0.5 1.6,-1.1 2.4,-1.9 0.5,0 0.9,-0.2 1.2,-0.2 z"
   id="path42"
   style="fill:#f2f2f2" />
	<path
   inkscape:connector-curvature="0"
   d="m 631,203.9 c 1.8,-1.7 3.7,-3 5.7,-3.8 2,-0.8 4.3,-1.3 6.8,-1.3 1.8,0 3.4,0.3 4.8,0.9 1.4,0.6 2.6,1.4 3.5,2.5 1,1.1 1.7,2.3 2.2,3.8 0.5,1.5 0.7,3.1 0.7,4.9 v 20.5 h -2.5 c -0.5,0 -1,-0.1 -1.3,-0.3 -0.3,-0.2 -0.5,-0.5 -0.7,-1.1 l -0.6,-3 c -0.8,0.8 -1.7,1.5 -2.5,2.1 -0.8,0.6 -1.6,1.1 -2.5,1.5 -0.9,0.4 -1.8,0.7 -2.8,1 -1,0.2 -2.1,0.3 -3.3,0.3 -1.2,0 -2.4,-0.2 -3.5,-0.5 -1.1,-0.4 -2.1,-0.9 -2.9,-1.6 -0.8,-0.7 -1.5,-1.6 -1.9,-2.6 -0.5,-1.1 -0.7,-2.3 -0.7,-3.8 0,-1.3 0.3,-2.5 1,-3.7 0.7,-1.2 1.8,-2.2 3.4,-3.1 1.6,-0.9 3.6,-1.7 6.1,-2.2 2.5,-0.6 5.6,-0.9 9.3,-1 v -2.5 c 0,-2.5 -0.5,-4.4 -1.6,-5.7 -1.1,-1.3 -2.7,-1.9 -4.7,-1.9 -1.4,0 -2.6,0.2 -3.5,0.5 -0.9,0.3 -1.8,0.7 -2.4,1.2 -0.7,0.4 -1.3,0.8 -1.8,1.2 -0.5,0.3 -1,0.5 -1.5,0.5 -0.4,0 -0.7,-0.1 -1,-0.3 -0.3,-0.2 -0.5,-0.4 -0.7,-0.7 z m 18.2,13.1 c -2.6,0.1 -4.8,0.3 -6.6,0.6 -1.8,0.3 -3.3,0.8 -4.5,1.3 -1.2,0.5 -2,1.2 -2.5,1.9 -0.5,0.7 -0.8,1.5 -0.8,2.4 0,0.8 0.1,1.6 0.4,2.2 0.3,0.6 0.6,1.1 1.1,1.5 0.5,0.4 1,0.7 1.7,0.9 0.6,0.2 1.3,0.3 2.1,0.3 1,0 1.9,-0.1 2.7,-0.3 0.8,-0.2 1.6,-0.5 2.3,-0.9 0.7,-0.4 1.4,-0.8 2.1,-1.4 0.7,-0.5 1.3,-1.1 1.9,-1.8 V 217 Z"
   id="path44"
   style="fill:#f2f2f2" />
	<path
   inkscape:connector-curvature="0"
   d="m 668.7,204.3 c 1.4,-1.7 2.9,-3 4.7,-4 1.8,-1 3.8,-1.5 6.1,-1.5 1.9,0 3.5,0.4 5,1.1 1.5,0.7 2.8,1.8 3.8,3.1 1.1,1.4 1.9,3.1 2.4,5.2 0.6,2.1 0.9,4.4 0.9,7.1 0,2.4 -0.3,4.6 -1,6.6 -0.6,2 -1.5,3.8 -2.7,5.3 -1.2,1.5 -2.7,2.7 -4.4,3.5 -1.7,0.9 -3.7,1.3 -5.8,1.3 -2,0 -3.7,-0.3 -5.1,-1 -1.4,-0.7 -2.6,-1.6 -3.7,-2.8 v 14.2 h -5.7 v -43 h 3.4 c 0.8,0 1.3,0.4 1.5,1.2 z m 0.3,19.4 c 1,1.4 2.2,2.4 3.4,2.9 1.2,0.6 2.6,0.9 4.1,0.9 3,0 5.3,-1.1 6.9,-3.2 1.6,-2.1 2.4,-5.2 2.4,-9.1 0,-2.1 -0.2,-3.9 -0.6,-5.4 -0.4,-1.5 -0.9,-2.7 -1.6,-3.7 -0.7,-1 -1.6,-1.7 -2.6,-2.1 -1,-0.4 -2.2,-0.7 -3.5,-0.7 -1.8,0 -3.4,0.4 -4.8,1.3 -1.4,0.8 -2.7,2 -3.8,3.6 v 15.5 z"
   id="path46"
   style="fill:#f2f2f2" />
	<path
   inkscape:connector-curvature="0"
   d="m 706,189.3 c 0,0.5 -0.1,1.1 -0.3,1.5 -0.2,0.5 -0.5,0.9 -0.9,1.3 -0.4,0.4 -0.8,0.7 -1.3,0.9 -0.5,0.2 -1,0.3 -1.6,0.3 -0.6,0 -1.1,-0.1 -1.5,-0.3 -0.5,-0.2 -0.9,-0.5 -1.3,-0.9 -0.4,-0.4 -0.6,-0.8 -0.9,-1.3 -0.2,-0.5 -0.3,-1 -0.3,-1.5 0,-0.5 0.1,-1.1 0.3,-1.6 0.2,-0.5 0.5,-0.9 0.9,-1.3 0.4,-0.4 0.8,-0.7 1.3,-0.9 0.5,-0.2 1,-0.3 1.5,-0.3 0.5,0 1.1,0.1 1.6,0.3 0.5,0.2 0.9,0.5 1.3,0.9 0.4,0.4 0.7,0.8 0.9,1.3 0.2,0.5 0.3,1 0.3,1.6 z m -1.2,10.1 v 32.1 h -5.6 v -32.1 z"
   id="path48"
   style="fill:#f2f2f2" />
	<path
   inkscape:connector-curvature="0"
   d="m 724,232 c -2.5,0 -4.5,-0.7 -5.8,-2.1 -1.4,-1.4 -2,-3.5 -2,-6.1 v -19.7 h -3.9 c -0.3,0 -0.6,-0.1 -0.9,-0.3 -0.2,-0.2 -0.3,-0.5 -0.3,-0.9 v -2.2 l 5.3,-0.7 1.3,-9.9 c 0.1,-0.3 0.2,-0.6 0.4,-0.8 0.2,-0.2 0.5,-0.3 0.9,-0.3 h 2.9 v 11 h 9.3 v 4.1 h -9.3 v 19.3 c 0,1.4 0.3,2.4 1,3 0.7,0.7 1.5,1 2.5,1 0.6,0 1.1,-0.1 1.5,-0.2 0.4,-0.2 0.8,-0.3 1.1,-0.5 0.3,-0.2 0.6,-0.4 0.8,-0.5 0.2,-0.2 0.4,-0.2 0.6,-0.2 0.3,0 0.6,0.2 0.8,0.5 l 1.6,2.7 c -1,0.9 -2.1,1.6 -3.5,2.1 -1.5,0.4 -2.9,0.7 -4.3,0.7 z"
   id="path50"
   style="fill:#f2f2f2" />
	<path
   inkscape:connector-curvature="0"
   d="m 736,203.9 c 1.8,-1.7 3.7,-3 5.7,-3.8 2,-0.8 4.3,-1.3 6.8,-1.3 1.8,0 3.4,0.3 4.8,0.9 1.4,0.6 2.6,1.4 3.5,2.5 1,1.1 1.7,2.3 2.2,3.8 0.5,1.5 0.7,3.1 0.7,4.9 v 20.5 h -2.5 c -0.5,0 -1,-0.1 -1.3,-0.3 -0.3,-0.2 -0.5,-0.5 -0.7,-1.1 l -0.6,-3 c -0.8,0.8 -1.7,1.5 -2.5,2.1 -0.8,0.6 -1.6,1.1 -2.5,1.5 -0.9,0.4 -1.8,0.7 -2.8,1 -1,0.2 -2.1,0.3 -3.3,0.3 -1.2,0 -2.4,-0.2 -3.5,-0.5 -1.1,-0.4 -2.1,-0.9 -2.9,-1.6 -0.8,-0.7 -1.5,-1.6 -1.9,-2.6 -0.5,-1.1 -0.7,-2.3 -0.7,-3.8 0,-1.3 0.3,-2.5 1,-3.7 0.7,-1.2 1.8,-2.2 3.4,-3.1 1.6,-0.9 3.6,-1.7 6.1,-2.2 2.5,-0.6 5.6,-0.9 9.3,-1 v -2.5 c 0,-2.5 -0.5,-4.4 -1.6,-5.7 -1.1,-1.3 -2.7,-1.9 -4.7,-1.9 -1.4,0 -2.6,0.2 -3.5,0.5 -0.9,0.3 -1.8,0.7 -2.4,1.2 -0.7,0.4 -1.3,0.8 -1.8,1.2 -0.5,0.3 -1,0.5 -1.5,0.5 -0.4,0 -0.7,-0.1 -1,-0.3 -0.3,-0.2 -0.5,-0.4 -0.7,-0.7 z m 18.2,13.1 c -2.6,0.1 -4.8,0.3 -6.6,0.6 -1.8,0.3 -3.3,0.8 -4.5,1.3 -1.2,0.5 -2,1.2 -2.5,1.9 -0.5,0.7 -0.8,1.5 -0.8,2.4 0,0.8 0.1,1.6 0.4,2.2 0.3,0.6 0.6,1.1 1.1,1.5 0.5,0.4 1,0.7 1.7,0.9 0.6,0.2 1.3,0.3 2.1,0.3 1,0 1.9,-0.1 2.7,-0.3 0.8,-0.2 1.6,-0.5 2.3,-0.9 0.7,-0.4 1.4,-0.8 2.1,-1.4 0.7,-0.5 1.3,-1.1 1.9,-1.8 V 217 Z"
   id="path52"
   style="fill:#f2f2f2" />
	<path
   inkscape:connector-curvature="0"
   d="m 774.2,184.8 v 46.7 h -5.6 v -46.7 z"
   id="path54"
   style="fill:#f2f2f2" />
</g><rect
   x="15.185555"
   y="-152.73816"
   transform="rotate(90)"
   width="1.678309"
   height="7.8472281"
   id="rect58"
   style="fill:#f2f2f2;stroke-width:0.45359704" />
</svg>