<?xml version="1.0" encoding="UTF-8" standalone="no"?>
<!-- Generator: Adobe Illustrator 22.1.0, SVG Export Plug-In . SVG Version: 6.00 Build 0)  -->

<svg
   xmlns:dc="http://purl.org/dc/elements/1.1/"
   xmlns:cc="http://creativecommons.org/ns#"
   xmlns:rdf="http://www.w3.org/1999/02/22-rdf-syntax-ns#"
   xmlns:svg="http://www.w3.org/2000/svg"
   xmlns="http://www.w3.org/2000/svg"
   xmlns:sodipodi="http://sodipodi.sourceforge.net/DTD/sodipodi-0.dtd"
   xmlns:inkscape="http://www.inkscape.org/namespaces/inkscape"
   version="1.1"
   id="Layer_1"
   x="0px"
   y="0px"
   viewBox="0 0 709.99998 149.99999"
   xml:space="preserve"
   sodipodi:docname="logo-full.svg"
   width="710"
   height="150"
   inkscape:version="0.92.3 (2405546, 2018-03-11)"><metadata
   id="metadata45"><rdf:RDF><cc:Work
       rdf:about=""><dc:format>image/svg+xml</dc:format><dc:type
         rdf:resource="http://purl.org/dc/dcmitype/StillImage" /><dc:title></dc:title></cc:Work></rdf:RDF></metadata><defs
   id="defs43" /><sodipodi:namedview
   pagecolor="#ffffff"
   bordercolor="#666666"
   borderopacity="1"
   objecttolerance="10"
   gridtolerance="10"
   guidetolerance="10"
   inkscape:pageopacity="0"
   inkscape:pageshadow="2"
   inkscape:window-width="1192"
   inkscape:window-height="680"
   id="namedview41"
   showgrid="false"
   inkscape:zoom="0.33396048"
   inkscape:cx="-27.204224"
   inkscape:cy="59.399994"
   inkscape:window-x="1068"
   inkscape:window-y="390"
   inkscape:window-maximized="0"
   inkscape:current-layer="Layer_1" />
<style
   type="text/css"
   id="style2">
	.st0{fill:#FFFFFF;}
</style>


<g
   id="g3806"
   transform="translate(29)"><g
     transform="translate(-73.4,-131.1)"
     id="g8">
	<polygon
   style="fill:#ffffff"
   id="polygon4"
   points="207,228 157.3,228 182.1,272 "
   class="st0" />
	<polygon
   style="fill:#ffffff"
   id="polygon6"
   points="231.9,184.1 207,140.2 182.1,184.1 157.2,140.2 132.4,184.1 107.5,228 82.6,272 132.4,272 157.3,228 182.1,184.1 207,228 231.9,272 281.6,272 256.8,228 "
   class="st0" />
</g><g
     transform="translate(-131.4,-131.1)"
     id="g36">
	<path
   style="fill:#ffffff"
   inkscape:connector-curvature="0"
   id="path10"
   d="m 398.7,186.1 v 45.4 h -5.4 v -33.4 c 0,-0.4 0,-0.9 0,-1.4 0,-0.5 0.1,-1 0.1,-1.6 l -15.6,28.4 c -0.5,1 -1.2,1.4 -2.2,1.4 h -0.9 c -1,0 -1.7,-0.5 -2.2,-1.4 L 356.6,195 c 0.1,1.1 0.2,2.2 0.2,3.1 v 33.4 h -5.4 v -45.4 h 4.5 c 0.5,0 1,0.1 1.3,0.2 0.3,0.1 0.6,0.4 0.9,0.9 l 15.7,28 c 0.3,0.5 0.5,1 0.7,1.6 0.2,0.5 0.5,1.1 0.7,1.7 0.2,-0.6 0.4,-1.1 0.7,-1.7 0.2,-0.6 0.5,-1.1 0.8,-1.6 l 15.4,-27.9 c 0.3,-0.5 0.5,-0.8 0.8,-0.9 0.3,-0.1 0.7,-0.2 1.3,-0.2 h 4.5 z"
   class="st0" />
	<path
   style="fill:#ffffff"
   inkscape:connector-curvature="0"
   id="path12"
   d="m 407.2,203.9 c 1.8,-1.7 3.7,-3 5.7,-3.8 2,-0.8 4.3,-1.3 6.8,-1.3 1.8,0 3.4,0.3 4.8,0.9 1.4,0.6 2.6,1.4 3.5,2.5 1,1.1 1.7,2.3 2.2,3.8 0.5,1.5 0.7,3.1 0.7,4.9 v 20.5 h -2.5 c -0.5,0 -1,-0.1 -1.3,-0.3 -0.3,-0.2 -0.5,-0.5 -0.7,-1.1 l -0.6,-3 c -0.8,0.8 -1.7,1.5 -2.5,2.1 -0.8,0.6 -1.6,1.1 -2.5,1.5 -0.9,0.4 -1.8,0.7 -2.8,1 -1,0.2 -2.1,0.3 -3.3,0.3 -1.2,0 -2.4,-0.2 -3.5,-0.5 -1.1,-0.4 -2.1,-0.9 -2.9,-1.6 -0.8,-0.7 -1.5,-1.6 -1.9,-2.6 -0.5,-1.1 -0.7,-2.3 -0.7,-3.8 0,-1.3 0.3,-2.5 1,-3.7 0.7,-1.2 1.8,-2.2 3.4,-3.1 1.6,-0.9 3.6,-1.7 6.1,-2.2 2.5,-0.6 5.6,-0.9 9.3,-1 v -2.5 c 0,-2.5 -0.5,-4.4 -1.6,-5.7 -1.1,-1.3 -2.7,-1.9 -4.7,-1.9 -1.4,0 -2.6,0.2 -3.5,0.5 -0.9,0.3 -1.8,0.7 -2.4,1.2 -0.7,0.4 -1.3,0.8 -1.8,1.2 -0.5,0.3 -1,0.5 -1.5,0.5 -0.4,0 -0.7,-0.1 -1,-0.3 -0.3,-0.2 -0.5,-0.4 -0.7,-0.7 z m 18.2,13.1 c -2.6,0.1 -4.8,0.3 -6.6,0.6 -1.8,0.3 -3.3,0.8 -4.5,1.3 -1.2,0.5 -2,1.2 -2.5,1.9 -0.5,0.7 -0.8,1.5 -0.8,2.4 0,0.8 0.1,1.6 0.4,2.2 0.3,0.6 0.6,1.1 1.1,1.5 0.5,0.4 1,0.7 1.7,0.9 0.6,0.2 1.3,0.3 2.1,0.3 1,0 1.9,-0.1 2.7,-0.3 0.8,-0.2 1.6,-0.5 2.3,-0.9 0.7,-0.4 1.4,-0.8 2.1,-1.4 0.7,-0.5 1.3,-1.1 1.9,-1.8 V 217 Z"
   class="st0" />
	<path
   style="fill:#ffffff"
   inkscape:connector-curvature="0"
   id="path14"
   d="m 444.8,204 c 0.7,-0.8 1.4,-1.5 2.2,-2.1 0.8,-0.6 1.6,-1.2 2.5,-1.6 0.9,-0.5 1.8,-0.8 2.8,-1 1,-0.2 2,-0.4 3.2,-0.4 1.8,0 3.3,0.3 4.6,0.9 1.3,0.6 2.5,1.4 3.4,2.5 0.9,1.1 1.6,2.4 2,3.9 0.5,1.5 0.7,3.2 0.7,5 v 20.4 h -5.7 V 211 c 0,-2.4 -0.6,-4.3 -1.7,-5.7 -1.1,-1.3 -2.8,-2 -5.1,-2 -1.7,0 -3.2,0.4 -4.7,1.2 -1.4,0.8 -2.8,1.9 -4,3.3 v 23.6 h -5.7 v -32.1 h 3.4 c 0.8,0 1.3,0.4 1.5,1.2 z"
   class="st0" />
	<path
   style="fill:#ffffff"
   inkscape:connector-curvature="0"
   id="path16"
   d="m 474.1,203.9 c 1.8,-1.7 3.7,-3 5.7,-3.8 2,-0.8 4.3,-1.3 6.8,-1.3 1.8,0 3.4,0.3 4.8,0.9 1.4,0.6 2.6,1.4 3.5,2.5 1,1.1 1.7,2.3 2.2,3.8 0.5,1.5 0.7,3.1 0.7,4.9 v 20.5 h -2.5 c -0.5,0 -1,-0.1 -1.3,-0.3 -0.3,-0.2 -0.5,-0.5 -0.7,-1.1 l -0.6,-3 c -0.8,0.8 -1.7,1.5 -2.5,2.1 -0.8,0.6 -1.6,1.1 -2.5,1.5 -0.9,0.4 -1.8,0.7 -2.8,1 -1,0.2 -2.1,0.3 -3.3,0.3 -1.2,0 -2.4,-0.2 -3.5,-0.5 -1.1,-0.4 -2.1,-0.9 -2.9,-1.6 -0.8,-0.7 -1.5,-1.6 -1.9,-2.6 -0.5,-1.1 -0.7,-2.3 -0.7,-3.8 0,-1.3 0.3,-2.5 1,-3.7 0.7,-1.2 1.8,-2.2 3.4,-3.1 1.6,-0.9 3.6,-1.7 6.1,-2.2 2.5,-0.6 5.6,-0.9 9.3,-1 v -2.5 c 0,-2.5 -0.5,-4.4 -1.6,-5.7 -1.1,-1.3 -2.7,-1.9 -4.7,-1.9 -1.4,0 -2.6,0.2 -3.5,0.5 -0.9,0.3 -1.8,0.7 -2.4,1.2 -0.7,0.4 -1.3,0.8 -1.8,1.2 -0.5,0.3 -1,0.5 -1.5,0.5 -0.4,0 -0.7,-0.1 -1,-0.3 -0.3,-0.2 -0.5,-0.4 -0.7,-0.7 z m 18.2,13.1 c -2.6,0.1 -4.8,0.3 -6.6,0.6 -1.8,0.3 -3.3,0.8 -4.5,1.3 -1.2,0.5 -2,1.2 -2.5,1.9 -0.5,0.7 -0.8,1.5 -0.8,2.4 0,0.8 0.1,1.6 0.4,2.2 0.3,0.6 0.6,1.1 1.1,1.5 0.5,0.4 1,0.7 1.7,0.9 0.6,0.2 1.3,0.3 2.1,0.3 1,0 1.9,-0.1 2.7,-0.3 0.8,-0.2 1.6,-0.5 2.3,-0.9 0.7,-0.4 1.4,-0.8 2.1,-1.4 0.7,-0.5 1.3,-1.1 1.9,-1.8 V 217 Z"
   class="st0" />
	<path
   style="fill:#ffffff"
   inkscape:connector-curvature="0"
   id="path18"
   d="m 511.7,204 c 0.7,-0.8 1.4,-1.5 2.2,-2.1 0.8,-0.6 1.6,-1.2 2.5,-1.6 0.9,-0.5 1.8,-0.8 2.8,-1 1,-0.2 2,-0.4 3.2,-0.4 1.8,0 3.3,0.3 4.6,0.9 1.3,0.6 2.5,1.4 3.4,2.5 0.9,1.1 1.6,2.4 2,3.9 0.5,1.5 0.7,3.2 0.7,5 v 20.4 h -5.7 V 211 c 0,-2.4 -0.6,-4.3 -1.7,-5.7 -1.1,-1.3 -2.8,-2 -5.1,-2 -1.7,0 -3.2,0.4 -4.7,1.2 -1.4,0.8 -2.8,1.9 -4,3.3 v 23.6 h -5.7 v -32.1 h 3.4 c 0.8,0 1.3,0.4 1.5,1.2 z"
   class="st0" />
	<path
   style="fill:#ffffff"
   inkscape:connector-curvature="0"
   id="path20"
   d="m 540.9,203.9 c 1.8,-1.7 3.7,-3 5.7,-3.8 2,-0.8 4.3,-1.3 6.8,-1.3 1.8,0 3.4,0.3 4.8,0.9 1.4,0.6 2.6,1.4 3.5,2.5 1,1.1 1.7,2.3 2.2,3.8 0.5,1.5 0.7,3.1 0.7,4.9 v 20.5 h -2.5 c -0.5,0 -1,-0.1 -1.3,-0.3 -0.3,-0.2 -0.5,-0.5 -0.7,-1.1 l -0.6,-3 c -0.8,0.8 -1.7,1.5 -2.5,2.1 -0.8,0.6 -1.6,1.1 -2.5,1.5 -0.9,0.4 -1.8,0.7 -2.8,1 -1,0.2 -2.1,0.3 -3.3,0.3 -1.2,0 -2.4,-0.2 -3.5,-0.5 -1.1,-0.4 -2.1,-0.9 -2.9,-1.6 -0.8,-0.7 -1.5,-1.6 -1.9,-2.6 -0.5,-1.1 -0.7,-2.3 -0.7,-3.8 0,-1.3 0.3,-2.5 1,-3.7 0.7,-1.2 1.8,-2.2 3.4,-3.1 1.6,-0.9 3.6,-1.7 6.1,-2.2 2.5,-0.6 5.6,-0.9 9.3,-1 v -2.5 c 0,-2.5 -0.5,-4.4 -1.6,-5.7 -1.1,-1.3 -2.7,-1.9 -4.7,-1.9 -1.4,0 -2.6,0.2 -3.5,0.5 -0.9,0.3 -1.8,0.7 -2.4,1.2 -0.7,0.4 -1.3,0.8 -1.8,1.2 -0.5,0.3 -1,0.5 -1.5,0.5 -0.4,0 -0.7,-0.1 -1,-0.3 -0.3,-0.2 -0.5,-0.4 -0.7,-0.7 z m 18.3,13.1 c -2.6,0.1 -4.8,0.3 -6.6,0.6 -1.8,0.3 -3.3,0.8 -4.5,1.3 -1.2,0.5 -2,1.2 -2.5,1.9 -0.5,0.7 -0.8,1.5 -0.8,2.4 0,0.8 0.1,1.6 0.4,2.2 0.3,0.6 0.6,1.1 1.1,1.5 0.5,0.4 1,0.7 1.7,0.9 0.6,0.2 1.3,0.3 2.1,0.3 1,0 1.9,-0.1 2.7,-0.3 0.8,-0.2 1.6,-0.5 2.3,-0.9 0.7,-0.4 1.4,-0.8 2.1,-1.4 0.7,-0.5 1.3,-1.1 1.9,-1.8 V 217 Z"
   class="st0" />
	<path
   style="fill:#ffffff"
   inkscape:connector-curvature="0"
   id="path22"
   d="m 622.7,222.1 c 0.3,0 0.6,0.1 0.9,0.4 l 2.4,2.6 c -1.9,2.2 -4.1,3.8 -6.8,5 -2.7,1.2 -5.9,1.8 -9.6,1.8 -3.3,0 -6.2,-0.6 -8.9,-1.7 -2.7,-1.1 -4.9,-2.7 -6.8,-4.8 -1.9,-2 -3.3,-4.5 -4.4,-7.3 -1,-2.9 -1.6,-6 -1.6,-9.4 0,-3.4 0.5,-6.6 1.6,-9.4 1.1,-2.9 2.6,-5.3 4.5,-7.4 2,-2 4.3,-3.6 7,-4.8 2.7,-1.1 5.7,-1.7 9,-1.7 3.2,0 6.1,0.5 8.6,1.6 2.5,1 4.6,2.4 6.5,4.2 l -2,2.8 c -0.1,0.2 -0.3,0.4 -0.5,0.5 -0.2,0.1 -0.5,0.2 -0.8,0.2 -0.4,0 -0.8,-0.2 -1.4,-0.6 -0.5,-0.4 -1.3,-0.9 -2.2,-1.4 -0.9,-0.5 -2,-1 -3.3,-1.4 -1.3,-0.4 -3,-0.6 -4.9,-0.6 -2.3,0 -4.5,0.4 -6.4,1.2 -1.9,0.8 -3.6,2 -5,3.5 -1.4,1.5 -2.5,3.4 -3.3,5.6 -0.8,2.2 -1.2,4.7 -1.2,7.5 0,2.8 0.4,5.4 1.2,7.6 0.8,2.2 1.9,4.1 3.3,5.6 1.4,1.5 3.1,2.7 5,3.5 1.9,0.8 4,1.2 6.2,1.2 1.4,0 2.6,-0.1 3.7,-0.2 1.1,-0.2 2.1,-0.4 3,-0.7 0.9,-0.3 1.8,-0.8 2.6,-1.3 0.8,-0.5 1.6,-1.1 2.4,-1.9 0.5,0 0.9,-0.2 1.2,-0.2 z"
   class="st0" />
	<path
   style="fill:#ffffff"
   inkscape:connector-curvature="0"
   id="path24"
   d="m 631,203.9 c 1.8,-1.7 3.7,-3 5.7,-3.8 2,-0.8 4.3,-1.3 6.8,-1.3 1.8,0 3.4,0.3 4.8,0.9 1.4,0.6 2.6,1.4 3.5,2.5 1,1.1 1.7,2.3 2.2,3.8 0.5,1.5 0.7,3.1 0.7,4.9 v 20.5 h -2.5 c -0.5,0 -1,-0.1 -1.3,-0.3 -0.3,-0.2 -0.5,-0.5 -0.7,-1.1 l -0.6,-3 c -0.8,0.8 -1.7,1.5 -2.5,2.1 -0.8,0.6 -1.6,1.1 -2.5,1.5 -0.9,0.4 -1.8,0.7 -2.8,1 -1,0.2 -2.1,0.3 -3.3,0.3 -1.2,0 -2.4,-0.2 -3.5,-0.5 -1.1,-0.4 -2.1,-0.9 -2.9,-1.6 -0.8,-0.7 -1.5,-1.6 -1.9,-2.6 -0.5,-1.1 -0.7,-2.3 -0.7,-3.8 0,-1.3 0.3,-2.5 1,-3.7 0.7,-1.2 1.8,-2.2 3.4,-3.1 1.6,-0.9 3.6,-1.7 6.1,-2.2 2.5,-0.6 5.6,-0.9 9.3,-1 v -2.5 c 0,-2.5 -0.5,-4.4 -1.6,-5.7 -1.1,-1.3 -2.7,-1.9 -4.7,-1.9 -1.4,0 -2.6,0.2 -3.5,0.5 -0.9,0.3 -1.8,0.7 -2.4,1.2 -0.7,0.4 -1.3,0.8 -1.8,1.2 -0.5,0.3 -1,0.5 -1.5,0.5 -0.4,0 -0.7,-0.1 -1,-0.3 -0.3,-0.2 -0.5,-0.4 -0.7,-0.7 z m 18.2,13.1 c -2.6,0.1 -4.8,0.3 -6.6,0.6 -1.8,0.3 -3.3,0.8 -4.5,1.3 -1.2,0.5 -2,1.2 -2.5,1.9 -0.5,0.7 -0.8,1.5 -0.8,2.4 0,0.8 0.1,1.6 0.4,2.2 0.3,0.6 0.6,1.1 1.1,1.5 0.5,0.4 1,0.7 1.7,0.9 0.6,0.2 1.3,0.3 2.1,0.3 1,0 1.9,-0.1 2.7,-0.3 0.8,-0.2 1.6,-0.5 2.3,-0.9 0.7,-0.4 1.4,-0.8 2.1,-1.4 0.7,-0.5 1.3,-1.1 1.9,-1.8 V 217 Z"
   class="st0" />
	<path
   style="fill:#ffffff"
   inkscape:connector-curvature="0"
   id="path26"
   d="m 668.7,204.3 c 1.4,-1.7 2.9,-3 4.7,-4 1.8,-1 3.8,-1.5 6.1,-1.5 1.9,0 3.5,0.4 5,1.1 1.5,0.7 2.8,1.8 3.8,3.1 1.1,1.4 1.9,3.1 2.4,5.2 0.6,2.1 0.9,4.4 0.9,7.1 0,2.4 -0.3,4.6 -1,6.6 -0.6,2 -1.5,3.8 -2.7,5.3 -1.2,1.5 -2.7,2.7 -4.4,3.5 -1.7,0.9 -3.7,1.3 -5.8,1.3 -2,0 -3.7,-0.3 -5.1,-1 -1.4,-0.7 -2.6,-1.6 -3.7,-2.8 v 14.2 h -5.7 v -43 h 3.4 c 0.8,0 1.3,0.4 1.5,1.2 z m 0.3,19.4 c 1,1.4 2.2,2.4 3.4,2.9 1.2,0.6 2.6,0.9 4.1,0.9 3,0 5.3,-1.1 6.9,-3.2 1.6,-2.1 2.4,-5.2 2.4,-9.1 0,-2.1 -0.2,-3.9 -0.6,-5.4 -0.4,-1.5 -0.9,-2.7 -1.6,-3.7 -0.7,-1 -1.6,-1.7 -2.6,-2.1 -1,-0.4 -2.2,-0.7 -3.5,-0.7 -1.8,0 -3.4,0.4 -4.8,1.3 -1.4,0.8 -2.7,2 -3.8,3.6 v 15.5 z"
   class="st0" />
	<path
   style="fill:#ffffff"
   inkscape:connector-curvature="0"
   id="path28"
   d="m 706,189.3 c 0,0.5 -0.1,1.1 -0.3,1.5 -0.2,0.5 -0.5,0.9 -0.9,1.3 -0.4,0.4 -0.8,0.7 -1.3,0.9 -0.5,0.2 -1,0.3 -1.6,0.3 -0.6,0 -1.1,-0.1 -1.5,-0.3 -0.5,-0.2 -0.9,-0.5 -1.3,-0.9 -0.4,-0.4 -0.6,-0.8 -0.9,-1.3 -0.2,-0.5 -0.3,-1 -0.3,-1.5 0,-0.5 0.1,-1.1 0.3,-1.6 0.2,-0.5 0.5,-0.9 0.9,-1.3 0.4,-0.4 0.8,-0.7 1.3,-0.9 0.5,-0.2 1,-0.3 1.5,-0.3 0.5,0 1.1,0.1 1.6,0.3 0.5,0.2 0.9,0.5 1.3,0.9 0.4,0.4 0.7,0.8 0.9,1.3 0.2,0.5 0.3,1 0.3,1.6 z m -1.2,10.1 v 32.1 h -5.6 v -32.1 z"
   class="st0" />
	<path
   style="fill:#ffffff"
   inkscape:connector-curvature="0"
   id="path30"
   d="m 724,232 c -2.5,0 -4.5,-0.7 -5.8,-2.1 -1.4,-1.4 -2,-3.5 -2,-6.1 v -19.7 h -3.9 c -0.3,0 -0.6,-0.1 -0.9,-0.3 -0.2,-0.2 -0.3,-0.5 -0.3,-0.9 v -2.2 l 5.3,-0.7 1.3,-9.9 c 0.1,-0.3 0.2,-0.6 0.4,-0.8 0.2,-0.2 0.5,-0.3 0.9,-0.3 h 2.9 v 11 h 9.3 v 4.1 h -9.3 v 19.3 c 0,1.4 0.3,2.4 1,3 0.7,0.7 1.5,1 2.5,1 0.6,0 1.1,-0.1 1.5,-0.2 0.4,-0.2 0.8,-0.3 1.1,-0.5 0.3,-0.2 0.6,-0.4 0.8,-0.5 0.2,-0.2 0.4,-0.2 0.6,-0.2 0.3,0 0.6,0.2 0.8,0.5 l 1.6,2.7 c -1,0.9 -2.1,1.6 -3.5,2.1 -1.5,0.4 -2.9,0.7 -4.3,0.7 z"
   class="st0" />
	<path
   style="fill:#ffffff"
   inkscape:connector-curvature="0"
   id="path32"
   d="m 736,203.9 c 1.8,-1.7 3.7,-3 5.7,-3.8 2,-0.8 4.3,-1.3 6.8,-1.3 1.8,0 3.4,0.3 4.8,0.9 1.4,0.6 2.6,1.4 3.5,2.5 1,1.1 1.7,2.3 2.2,3.8 0.5,1.5 0.7,3.1 0.7,4.9 v 20.5 h -2.5 c -0.5,0 -1,-0.1 -1.3,-0.3 -0.3,-0.2 -0.5,-0.5 -0.7,-1.1 l -0.6,-3 c -0.8,0.8 -1.7,1.5 -2.5,2.1 -0.8,0.6 -1.6,1.1 -2.5,1.5 -0.9,0.4 -1.8,0.7 -2.8,1 -1,0.2 -2.1,0.3 -3.3,0.3 -1.2,0 -2.4,-0.2 -3.5,-0.5 -1.1,-0.4 -2.1,-0.9 -2.9,-1.6 -0.8,-0.7 -1.5,-1.6 -1.9,-2.6 -0.5,-1.1 -0.7,-2.3 -0.7,-3.8 0,-1.3 0.3,-2.5 1,-3.7 0.7,-1.2 1.8,-2.2 3.4,-3.1 1.6,-0.9 3.6,-1.7 6.1,-2.2 2.5,-0.6 5.6,-0.9 9.3,-1 v -2.5 c 0,-2.5 -0.5,-4.4 -1.6,-5.7 -1.1,-1.3 -2.7,-1.9 -4.7,-1.9 -1.4,0 -2.6,0.2 -3.5,0.5 -0.9,0.3 -1.8,0.7 -2.4,1.2 -0.7,0.4 -1.3,0.8 -1.8,1.2 -0.5,0.3 -1,0.5 -1.5,0.5 -0.4,0 -0.7,-0.1 -1,-0.3 -0.3,-0.2 -0.5,-0.4 -0.7,-0.7 z m 18.2,13.1 c -2.6,0.1 -4.8,0.3 -6.6,0.6 -1.8,0.3 -3.3,0.8 -4.5,1.3 -1.2,0.5 -2,1.2 -2.5,1.9 -0.5,0.7 -0.8,1.5 -0.8,2.4 0,0.8 0.1,1.6 0.4,2.2 0.3,0.6 0.6,1.1 1.1,1.5 0.5,0.4 1,0.7 1.7,0.9 0.6,0.2 1.3,0.3 2.1,0.3 1,0 1.9,-0.1 2.7,-0.3 0.8,-0.2 1.6,-0.5 2.3,-0.9 0.7,-0.4 1.4,-0.8 2.1,-1.4 0.7,-0.5 1.3,-1.1 1.9,-1.8 V 217 Z"
   class="st0" />
	<path
   style="fill:#ffffff"
   inkscape:connector-curvature="0"
   id="path34"
   d="m 774.2,184.8 v 46.7 h -5.6 v -46.7 z"
   class="st0" />
</g><rect
     style="fill:#ffffff"
     id="rect38"
     height="17.299999"
     width="3.7"
     class="st0"
     transform="rotate(90)"
     y="-325.4126"
     x="58.824585" /></g>
</svg>