<?xml version="1.0" encoding="UTF-8" standalone="no"?>
<!-- Generator: Adobe Illustrator 22.1.0, SVG Export Plug-In . SVG Version: 6.00 Build 0)  -->

<svg
   xmlns:dc="http://purl.org/dc/elements/1.1/"
   xmlns:cc="http://creativecommons.org/ns#"
   xmlns:rdf="http://www.w3.org/1999/02/22-rdf-syntax-ns#"
   xmlns:svg="http://www.w3.org/2000/svg"
   xmlns="http://www.w3.org/2000/svg"
   xmlns:sodipodi="http://sodipodi.sourceforge.net/DTD/sodipodi-0.dtd"
   xmlns:inkscape="http://www.inkscape.org/namespaces/inkscape"
   version="1.1"
   id="Layer_1"
   x="0px"
   y="0px"
   viewBox="0 0 149.22951 100.19907"
   xml:space="preserve"
   sodipodi:docname="logo.svg"
   width="149.22952"
   height="100.19907"
   inkscape:version="0.92.3 (2405546, 2018-03-11)"
   inkscape:export-filename="C:\Users\m4r10\Downloads\Manana_Logo\Logo_manana_bile_obrysy.png"
   inkscape:export-xdpi="96"
   inkscape:export-ydpi="96"><metadata
   id="metadata65"><rdf:RDF><cc:Work
       rdf:about=""><dc:format>image/svg+xml</dc:format><dc:type
         rdf:resource="http://purl.org/dc/dcmitype/StillImage" /><dc:title></dc:title></cc:Work></rdf:RDF></metadata><defs
   id="defs63">


</defs><sodipodi:namedview
   pagecolor="#f2f2f2"
   bordercolor="#f2f2f2"
   borderopacity="1"
   objecttolerance="10"
   gridtolerance="10"
   guidetolerance="10"
   inkscape:pageopacity="0"
   inkscape:pageshadow="2"
   inkscape:window-width="1718"
   inkscape:window-height="1368"
   id="namedview61"
   showgrid="false"
   units="px"
   inkscape:zoom="1.8891657"
   inkscape:cx="20.907761"
   inkscape:cy="-27.369846"
   inkscape:window-x="1102"
   inkscape:window-y="7"
   inkscape:window-maximized="0"
   inkscape:current-layer="Layer_1"
   fit-margin-top="0"
   fit-margin-left="0"
   fit-margin-right="0"
   fit-margin-bottom="0" />
<style
   type="text/css"
   id="style2">
	.st0{fill:#f2f2f2;}
</style>












<polygon
   points="182.1,184.1 157.2,140.2 132.4,184.1 "
   id="polygon4"
   style="fill:#f2f2f2;fill-opacity:1"
   transform="matrix(0.7373,0,0,0.7373,-59.64757,-101.82113)" /><polygon
   points="182.1,184.1 157.3,228 132.4,184.1 "
   id="polygon6"
   style="fill:#f2f2f2"
   transform="matrix(0.7373,0,0,0.7373,-59.64757,-101.82113)" /><polygon
   points="107.5,228 132.4,184.1 157.3,228 "
   id="polygon8"
   style="fill:#f2f2f2"
   transform="matrix(0.7373,0,0,0.7373,-59.64757,-101.82113)" /><polygon
   points="182.1,184.1 207,140.2 231.9,184.1 "
   id="polygon10"
   style="fill:#f2f2f2"
   transform="matrix(0.7373,0,0,0.7373,-59.64757,-101.82113)" /><polygon
   points="256.8,228 231.9,184.1 207,228 "
   id="polygon12"
   style="fill:#f2f2f2"
   transform="matrix(0.7373,0,0,0.7373,-59.64757,-101.82113)" /><polygon
   points="182.1,184.1 207,228 231.9,184.1 "
   id="polygon14"
   style="fill:#f2f2f2"
   transform="matrix(0.7373,0,0,0.7373,-59.64757,-101.82113)" /><polygon
   points="207,228 182.1,272 157.3,228 "
   id="polygon16"
   style="fill:#f2f2f2"
   transform="matrix(0.7373,0,0,0.7373,-59.64757,-101.82113)" /><polygon
   points="256.8,228 231.9,272 207,228 "
   id="polygon18"
   style="fill:#f2f2f2"
   transform="matrix(0.7373,0,0,0.7373,-59.64757,-101.82113)" /><polygon
   points="132.4,272 107.5,228 82.6,272 "
   id="polygon20"
   style="fill:#f2f2f2"
   transform="matrix(0.7373,0,0,0.7373,-59.64757,-101.82113)" /><polygon
   points="107.5,228 132.4,272 157.3,228 "
   id="polygon22"
   style="fill:#f2f2f2"
   transform="matrix(0.7373,0,0,0.7373,-59.64757,-101.82113)" /><polygon
   points="132.4,272 107.5,228 82.6,272 "
   id="polygon20-1"
   style="fill:#f2f2f2"
   transform="matrix(0.7373,0,0,0.7373,50.43132,-101.82113)" /><path
   style="fill:#f2f2f2"
   inkscape:connector-curvature="0"
   id="path26"
   d="M 92.97353,0 74.61476,32.36747 56.25599,0 0,99.46177 H 38.3396 L 56.25599,67.8316 74.61476,100.19907 92.97353,67.8316 110.88992,99.46177 h 38.3396 z m 18.35877,35.3904 17.03163,30.15557 H 94.22694 Z M 92.97353,3.02293 110.07889,33.1785 H 75.9419 v 0 z m -36.71754,0 17.10536,30.15557 H 39.22436 Z M 2.58055,97.98717 19.68591,67.8316 28.23859,82.94625 36.79127,98.0609 H 2.58055 Z M 37.97095,97.24987 29.41827,82.13522 20.86559,67.02057 H 55.00258 Z M 20.86559,65.54597 37.97095,35.3904 39.00317,37.23365 55.00258,65.54597 Z M 41.06761,37.82349 39.22436,34.6531 h 34.13699 v 0 L 56.32972,64.80867 Z M 74.61476,97.24987 57.58313,67.02057 H 91.72012 Z M 91.72012,65.54597 H 57.58313 v 0 L 74.68849,35.3904 Z M 92.97353,64.80867 75.86817,34.6531 h 34.13699 l -1.84325,3.17039 z m 18.35877,32.4412 -17.10536,-30.2293 h 34.13699 l -8.55268,15.11465 z m 9.80609,-14.37735 8.55268,-15.11465 17.10536,30.15557 h -34.13699 z"
   class="st0" />
</svg>
