<?xml version="1.0" encoding="UTF-8" standalone="no"?>
<!-- Generator: Adobe Illustrator 22.1.0, SVG Export Plug-In . SVG Version: 6.00 Build 0)  -->

<svg
   xmlns:dc="http://purl.org/dc/elements/1.1/"
   xmlns:cc="http://creativecommons.org/ns#"
   xmlns:rdf="http://www.w3.org/1999/02/22-rdf-syntax-ns#"
   xmlns:svg="http://www.w3.org/2000/svg"
   xmlns="http://www.w3.org/2000/svg"
   xmlns:sodipodi="http://sodipodi.sourceforge.net/DTD/sodipodi-0.dtd"
   xmlns:inkscape="http://www.inkscape.org/namespaces/inkscape"
   version="1.1"
   id="Layer_1"
   x="0px"
   y="0px"
   viewBox="0 0 49.999797 33.571997"
   xml:space="preserve"
   sodipodi:docname="logo.svg"
   width="49.999802"
   height="33.571999"
   inkscape:version="0.92.3 (2405546, 2018-03-11)"
   inkscape:export-filename="C:\Users\m4r10\Downloads\Manana_Logo\Logo_manana_bile_obrysy.png"
   inkscape:export-xdpi="96"
   inkscape:export-ydpi="96"><metadata
   id="metadata65"><rdf:RDF><cc:Work
       rdf:about=""><dc:format>image/svg+xml</dc:format><dc:type
         rdf:resource="http://purl.org/dc/dcmitype/StillImage" /><dc:title /></cc:Work></rdf:RDF></metadata><defs
   id="defs63">


</defs><sodipodi:namedview
   pagecolor="#f2f2f2"
   bordercolor="#f2f2f2"
   borderopacity="1"
   objecttolerance="10"
   gridtolerance="10"
   guidetolerance="10"
   inkscape:pageopacity="0"
   inkscape:pageshadow="2"
   inkscape:window-width="1718"
   inkscape:window-height="1368"
   id="namedview61"
   showgrid="false"
   units="px"
   inkscape:zoom="1.8101934"
   inkscape:cx="-54.446227"
   inkscape:cy="-90.634261"
   inkscape:window-x="1102"
   inkscape:window-y="7"
   inkscape:window-maximized="0"
   inkscape:current-layer="Layer_1"
   fit-margin-top="0"
   fit-margin-left="0"
   fit-margin-right="0"
   fit-margin-bottom="0" />
<style
   type="text/css"
   id="style2">
	.st0{fill:#f2f2f2;}
</style>












<polygon
   points="182.1,184.1 157.2,140.2 132.4,184.1 "
   id="polygon4"
   style="fill:#f2f2f2;fill-opacity:1"
   transform="matrix(0.24703458,0,0,0.24703458,-19.985098,-34.115476)" /><polygon
   points="182.1,184.1 157.3,228 132.4,184.1 "
   id="polygon6"
   style="fill:#f2f2f2"
   transform="matrix(0.24703458,0,0,0.24703458,-19.985098,-34.115476)" /><polygon
   points="107.5,228 132.4,184.1 157.3,228 "
   id="polygon8"
   style="fill:#f2f2f2"
   transform="matrix(0.24703458,0,0,0.24703458,-19.985098,-34.115476)" /><polygon
   points="182.1,184.1 207,140.2 231.9,184.1 "
   id="polygon10"
   style="fill:#f2f2f2"
   transform="matrix(0.24703458,0,0,0.24703458,-19.985098,-34.115476)" /><polygon
   points="256.8,228 231.9,184.1 207,228 "
   id="polygon12"
   style="fill:#f2f2f2"
   transform="matrix(0.24703458,0,0,0.24703458,-19.985098,-34.115476)" /><polygon
   points="182.1,184.1 207,228 231.9,184.1 "
   id="polygon14"
   style="fill:#f2f2f2"
   transform="matrix(0.24703458,0,0,0.24703458,-19.985098,-34.115476)" /><polygon
   points="207,228 182.1,272 157.3,228 "
   id="polygon16"
   style="fill:#f2f2f2"
   transform="matrix(0.24703458,0,0,0.24703458,-19.985098,-34.115476)" /><polygon
   points="256.8,228 231.9,272 207,228 "
   id="polygon18"
   style="fill:#f2f2f2"
   transform="matrix(0.24703458,0,0,0.24703458,-19.985098,-34.115476)" /><polygon
   points="132.4,272 107.5,228 82.6,272 "
   id="polygon20"
   style="fill:#f2f2f2"
   transform="matrix(0.24703458,0,0,0.24703458,-19.985098,-34.115476)" /><polygon
   points="107.5,228 132.4,272 157.3,228 "
   id="polygon22"
   style="fill:#f2f2f2"
   transform="matrix(0.24703458,0,0,0.24703458,-19.985098,-34.115476)" /><polygon
   points="132.4,272 107.5,228 82.6,272 "
   id="polygon20-1"
   style="fill:#f2f2f2"
   transform="matrix(0.24703458,0,0,0.24703458,16.897166,-34.115476)" /><path
   style="fill:#f2f2f2;stroke-width:0.335053"
   inkscape:connector-curvature="0"
   id="path26"
   d="M 31.151061,0 24.9999,10.844818 18.848739,0 0,33.324965 H 12.845798 L 18.848739,22.727182 24.9999,33.572 31.151061,22.727182 37.154002,33.324965 H 49.9998 Z m 6.151161,11.85766 5.706499,10.103715 H 31.57102 Z M 31.151061,1.012842 36.882264,11.116556 H 25.444562 v 0 z m -12.302322,0 5.731202,10.103714 H 13.14224 Z M 0.864621,32.830896 6.595823,22.727182 9.461425,27.791391 12.327026,32.8556 H 0.864621 Z M 12.722281,32.583862 9.85668,27.519653 6.991079,22.455444 H 18.42878 Z M 6.991079,21.961375 12.722281,11.85766 l 0.345849,0.617587 5.36065,9.486128 z m 6.768747,-9.288501 -0.617586,-1.062249 h 11.437701 v 0 L 18.873442,21.71434 Z M 24.9999,32.583862 19.293401,22.455444 H 30.731102 Z M 30.731102,21.961375 H 19.293401 v 0 L 25.024603,11.85766 Z M 31.151061,21.71434 25.419859,11.610625 H 36.85756 l -0.617586,1.062249 z M 37.302222,32.583862 31.57102,22.455444 h 11.437701 l -2.865601,5.064209 z m 3.28556,-4.817175 2.865601,-5.064209 5.731203,10.103715 H 37.746885 Z"
   class="st0" />
</svg>